<svg width="201" height="74" viewBox="0 0 201 74" fill="none" xmlns="http://www.w3.org/2000/svg">
<rect x="18.5" width="50" height="33.3333" rx="8" fill="black"/>
<path fill-rule="evenodd" clip-rule="evenodd" d="M30.6568 12.2734C31.3109 12.3286 31.9651 11.9423 32.3739 11.4526C32.7759 10.9491 33.0417 10.2731 32.9735 9.58337C32.3944 9.61096 31.6789 9.96964 31.2701 10.4732C30.8953 10.9077 30.575 11.6112 30.6568 12.2734ZM38.4384 21.1574V10.4042H42.4245C44.4823 10.4042 45.9201 11.8389 45.9201 13.9357C45.9201 16.0325 44.4551 17.481 42.37 17.481H40.0873V21.1574H38.4384ZM32.9667 12.4044C32.3904 12.3709 31.8646 12.5799 31.4398 12.7487C31.1665 12.8574 30.9351 12.9494 30.759 12.9494C30.5614 12.9494 30.3203 12.8524 30.0497 12.7436C29.6952 12.601 29.2898 12.438 28.8647 12.4458C27.8903 12.4596 26.984 13.0183 26.4866 13.9081C25.4645 15.6877 26.2209 18.3225 27.2089 19.771C27.6927 20.4883 28.2719 21.2747 29.035 21.2471C29.3708 21.2342 29.6123 21.1305 29.8622 21.0231C30.15 20.8995 30.4489 20.7711 30.9157 20.7711C31.3663 20.7711 31.6521 20.8962 31.9265 21.0162C32.1874 21.1304 32.438 21.24 32.81 21.2333C33.6004 21.2195 34.0978 20.5159 34.5816 19.7986C35.1037 19.0287 35.3331 18.2773 35.3679 18.1633C35.3699 18.1568 35.3713 18.1523 35.372 18.1501C35.3712 18.1492 35.3647 18.1462 35.3533 18.141C35.1788 18.0601 33.8449 17.4419 33.8321 15.7842C33.8192 14.3928 34.8901 13.6879 35.0587 13.5769C35.069 13.5702 35.0759 13.5656 35.079 13.5632C34.3976 12.5424 33.3346 12.432 32.9667 12.4044ZM48.9319 21.2402C49.9677 21.2402 50.9284 20.7091 51.3645 19.8676H51.3986V21.1574H52.9249V15.8049C52.9249 14.253 51.6984 13.2529 49.8109 13.2529C48.0597 13.2529 46.7651 14.2668 46.7174 15.6601H48.2028C48.3255 14.9979 48.9319 14.5634 49.7632 14.5634C50.7717 14.5634 51.3373 15.0393 51.3373 15.9153V16.5085L49.2794 16.6326C47.3647 16.7499 46.329 17.5431 46.329 18.9226C46.329 20.3159 47.3988 21.2402 48.9319 21.2402ZM49.3747 19.9641C48.4957 19.9641 47.937 19.5365 47.937 18.8812C47.937 18.2053 48.4753 17.8121 49.5042 17.75L51.3372 17.6328V18.2398C51.3372 19.2468 50.4922 19.9641 49.3747 19.9641ZM57.9876 21.5782C57.3267 23.4612 56.5703 24.082 54.9622 24.082C54.8396 24.082 54.4307 24.0682 54.3353 24.0406V22.7507C54.4376 22.7645 54.6897 22.7783 54.8191 22.7783C55.5482 22.7783 55.9571 22.4679 56.2092 21.6609L56.3591 21.185L53.5654 13.3563H55.2893L57.2313 19.7089H57.2654L59.2073 13.3563H60.8836L57.9876 21.5782ZM40.0872 11.8113H41.9883C43.4192 11.8113 44.2369 12.5838 44.2369 13.9426C44.2369 15.3014 43.4192 16.0808 41.9815 16.0808H40.0872V11.8113Z" fill="white"/>
<rect x="75.5" width="50" height="33.3333" rx="8" fill="black"/>
<path d="M109.352 10.9307C108.737 10.6864 107.76 10.4166 106.552 10.4166C103.469 10.4166 101.298 12.0608 101.284 14.4114C101.259 16.1457 102.839 17.1089 104.021 17.6872C105.229 18.2781 105.639 18.6638 105.639 19.1905C105.627 19.9994 104.663 20.3723 103.764 20.3723C102.518 20.3723 101.85 20.18 100.835 19.73L100.424 19.537L99.9868 22.2476C100.719 22.5812 102.068 22.8772 103.469 22.8902C106.745 22.8902 108.878 21.2715 108.903 18.7665C108.915 17.392 108.081 16.3387 106.282 15.4781C105.19 14.9256 104.521 14.5531 104.521 13.9878C104.534 13.4739 105.087 12.9475 106.32 12.9475C107.335 12.9218 108.08 13.1657 108.645 13.4099L108.928 13.5381L109.352 10.9307Z" fill="white"/>
<path d="M98.0344 22.7102H94.9122L96.865 10.6355H99.987L98.0344 22.7102Z" fill="white"/>
<path fill-rule="evenodd" clip-rule="evenodd" d="M117.356 10.6355H114.941C114.196 10.6355 113.63 10.8537 113.309 11.6373L108.672 22.7101H111.948C111.948 22.7101 112.487 21.2198 112.603 20.8988H116.611C116.701 21.3227 116.984 22.7101 116.984 22.7101H119.875L117.356 10.6355ZM113.502 18.4326C113.759 17.7389 114.749 15.0542 114.749 15.0542C114.743 15.0645 114.784 14.953 114.844 14.7866L114.844 14.7846L114.845 14.7833C114.934 14.5348 115.067 14.1661 115.159 13.8982L115.377 14.9386C115.377 14.9386 115.969 17.8289 116.097 18.4326H113.502Z" fill="white"/>
<path d="M92.3045 10.6355L89.2469 18.8693L88.9128 17.1994L88.9124 17.1984L87.8208 11.6505C87.641 10.8793 87.0885 10.6609 86.4076 10.6355H81.3844L81.333 10.8795C82.5582 11.1928 83.6539 11.6442 84.6141 12.2056L87.3968 22.6974H90.6984L95.6059 10.6355H92.3045Z" fill="white"/>
<rect x="132.5" width="50" height="33.3333" rx="8" fill="black"/>
<path d="M174.166 16.5504C174.166 22.2443 169.56 26.8509 163.866 26.8509C161.462 26.8509 159.259 26.0211 157.514 24.6477C159.917 22.7593 161.434 19.8408 161.434 16.5504C161.434 13.26 159.889 10.3416 157.514 8.45315C159.259 7.07976 161.462 6.25 163.866 6.25C169.56 6.25 174.166 10.8852 174.166 16.5504Z" fill="white"/>
<path d="M157.514 8.45315C157.514 8.45315 157.514 8.45315 157.514 8.45315C159.889 10.3416 161.434 13.26 161.434 16.5504C161.434 19.8408 159.917 22.7593 157.514 24.6477L157.485 24.6477C155.111 22.7879 153.565 19.8409 153.565 16.5505C153.565 13.2601 155.111 10.3416 157.485 8.45321C157.485 8.45319 157.485 8.45323 157.485 8.45321L157.514 8.45315Z" fill="black"/>
<path d="M153.565 16.5505C153.565 13.2601 155.111 10.3416 157.485 8.45321C155.74 7.07982 153.537 6.25004 151.133 6.25004C145.44 6.25004 140.833 10.8566 140.833 16.5505C140.833 22.2443 145.44 26.8509 151.133 26.8509C153.537 26.8509 155.74 26.0211 157.485 24.6477C155.111 22.7879 153.565 19.8409 153.565 16.5505Z" fill="white"/>
<rect x="18.5" y="40.3334" width="50" height="33.3333" rx="8" fill="black"/>
<path d="M30.2943 53.25C30.5562 53.6679 30.6743 54.0983 30.6743 54.642C30.6743 56.3761 29.1416 58.6288 27.8977 60.2106H25.0565L23.917 53.6297L26.4048 53.4015L27.0073 58.0843C27.5702 57.1985 28.2649 55.8066 28.2649 54.8576C28.2649 54.3381 28.1727 53.9843 28.0287 53.6929L30.2943 53.25Z" fill="white"/>
<path d="M33.5186 56.1482C33.9764 56.1482 35.129 55.9459 35.129 55.3132C35.129 55.0094 34.9066 54.8579 34.6445 54.8579C34.1859 54.8579 33.5842 55.389 33.5186 56.1482ZM33.4662 57.4012C33.4662 58.1738 33.9109 58.4768 34.5005 58.4768C35.1426 58.4768 35.7574 58.3253 36.5564 57.9331L36.2555 59.907C35.6925 60.1727 34.8151 60.3499 33.9635 60.3499C31.8032 60.3499 31.03 59.0846 31.03 57.5027C31.03 55.4524 32.2877 53.2753 34.8805 53.2753C36.3081 53.2753 37.1063 54.0478 37.1063 55.1234C37.1065 56.8575 34.8022 57.3887 33.4662 57.4012Z" fill="white"/>
<path d="M44.2861 54.7692C44.2861 55.0222 44.2465 55.3893 44.2068 55.6292L43.4604 60.1854H41.0379L41.7189 56.0088C41.7318 55.8955 41.7715 55.6675 41.7715 55.5409C41.7715 55.2371 41.575 55.1613 41.3387 55.1613C41.0249 55.1613 40.7103 55.3004 40.5008 55.4019L39.7285 60.1855H37.2924L38.4053 53.364H40.5137L40.5404 53.9085C41.0379 53.5921 41.6929 53.25 42.6221 53.25C43.8534 53.2499 44.2861 53.8575 44.2861 54.7692Z" fill="white"/>
<path d="M51.4777 54.0221C52.1716 53.5417 52.8267 53.2753 53.7299 53.2753C54.9737 53.2753 55.4064 53.883 55.4064 54.7946C55.4064 55.0477 55.3667 55.4148 55.3273 55.6547L54.5816 60.2109H52.1585L52.8525 55.946C52.8652 55.832 52.8922 55.6929 52.8922 55.6047C52.8922 55.2626 52.6955 55.1868 52.4593 55.1868C52.1585 55.1868 51.8577 55.3133 51.6343 55.4274L50.8621 60.2109H48.4397L49.1335 55.946C49.1463 55.832 49.1724 55.693 49.1724 55.6048C49.1724 55.2627 48.9757 55.1868 48.7403 55.1868C48.4258 55.1868 48.1119 55.3259 47.9024 55.4274L47.1294 60.211H44.6941L45.807 53.3895H47.8897L47.9552 53.959C48.4397 53.6177 49.0941 53.2756 49.9714 53.2756C50.7311 53.2753 51.2284 53.5917 51.4777 54.0221Z" fill="white"/>
<path d="M60.2268 56.009C60.2268 55.4522 60.0826 55.0725 59.6509 55.0725C58.6949 55.0725 58.4985 56.7049 58.4985 57.54C58.4985 58.1735 58.682 58.5656 59.1138 58.5656C60.0173 58.5656 60.2268 56.8441 60.2268 56.009ZM56.0366 57.4392C56.0366 55.288 57.215 53.2751 59.926 53.2751C61.9688 53.2751 62.7156 54.4397 62.7156 56.0472C62.7156 58.1735 61.55 60.3754 58.7735 60.3754C56.7176 60.3754 56.0366 59.0717 56.0366 57.4392Z" fill="white"/>
<rect x="75.5" y="40.3334" width="50" height="33.3333" rx="8" fill="black"/>
<path d="M109.157 61.7367L106.186 65.1018C106.121 65.1749 106.043 65.2332 105.956 65.2731C105.869 65.3129 105.776 65.3334 105.681 65.3334H91.595C91.5278 65.3334 91.462 65.3126 91.4058 65.2737C91.3496 65.2348 91.3054 65.1794 91.2786 65.1143C91.2518 65.0492 91.2436 64.9773 91.255 64.9073C91.2664 64.8374 91.2969 64.7724 91.3427 64.7206L94.3164 61.3554C94.3809 61.2825 94.4588 61.2243 94.5453 61.1845C94.6319 61.1447 94.7253 61.124 94.8197 61.1238H108.905C108.972 61.1238 109.038 61.1446 109.094 61.1835C109.15 61.2224 109.195 61.2778 109.221 61.3429C109.248 61.408 109.256 61.48 109.245 61.5499C109.234 61.6199 109.203 61.6848 109.157 61.7367ZM106.186 54.9601C106.121 54.887 106.043 54.8287 105.956 54.7889C105.869 54.7491 105.776 54.7286 105.681 54.7286H91.595C91.5278 54.7286 91.462 54.7493 91.4058 54.7883C91.3496 54.8272 91.3054 54.8826 91.2786 54.9477C91.2518 55.0128 91.2436 55.0847 91.255 55.1547C91.2664 55.2246 91.2969 55.2895 91.3427 55.3414L94.3164 58.7066C94.3809 58.7795 94.4588 58.8377 94.5453 58.8775C94.6319 58.9173 94.7253 58.938 94.8197 58.9381H108.905C108.972 58.9381 109.038 58.9174 109.094 58.8785C109.15 58.8395 109.195 58.7841 109.221 58.7191C109.248 58.654 109.256 58.582 109.245 58.5121C109.234 58.4421 109.203 58.3772 109.157 58.3253L106.186 54.9601ZM91.595 52.5429H105.681C105.776 52.5429 105.869 52.5224 105.956 52.4826C106.043 52.4428 106.121 52.3845 106.186 52.3114L109.157 48.9462C109.203 48.8943 109.234 48.8294 109.245 48.7594C109.256 48.6895 109.248 48.6176 109.221 48.5525C109.195 48.4874 109.15 48.432 109.094 48.393C109.038 48.3541 108.972 48.3334 108.905 48.3334H94.8197C94.7253 48.3335 94.6319 48.3542 94.5453 48.394C94.4588 48.4338 94.3809 48.492 94.3164 48.5649L91.3435 51.9301C91.2977 51.9819 91.2672 52.0468 91.2558 52.1166C91.2444 52.1865 91.2525 52.2584 91.2792 52.3234C91.3059 52.3885 91.35 52.4439 91.4061 52.4829C91.4622 52.5219 91.5278 52.5427 91.595 52.5429Z" fill="white"/>
<rect x="132.5" y="40.3334" width="50" height="33.3333" rx="8" fill="black"/>
<path d="M158 66.3334C152.753 66.3334 148.5 62.0806 148.5 56.8334C148.5 51.5861 152.753 47.3334 158 47.3334C163.247 47.3334 167.5 51.5861 167.5 56.8334C167.5 59.3529 166.499 61.7693 164.718 63.5509C162.936 65.3325 160.52 66.3334 158 66.3334ZM157.434 53.3083C156.914 53.334 156.423 53.5532 156.056 53.9227C155.69 54.2922 155.475 54.7853 155.453 55.3053C155.453 56.2836 156.051 56.9223 157.321 57.1891L158.21 57.3993C159.075 57.6015 159.431 57.8925 159.431 58.3857C159.431 58.8789 158.809 59.364 158 59.364C157.713 59.3903 157.424 59.3353 157.167 59.2052C156.909 59.0751 156.694 58.8751 156.545 58.6283C156.501 58.5346 156.431 58.4553 156.344 58.3995C156.256 58.3437 156.155 58.3137 156.051 58.3129H155.574C155.538 58.3197 155.503 58.3337 155.472 58.3541C155.44 58.3745 155.413 58.4008 155.392 58.4316C155.371 58.4624 155.357 58.4971 155.349 58.5336C155.341 58.5701 155.341 58.6078 155.348 58.6444C155.464 59.1187 155.734 59.541 156.116 59.8453C156.498 60.1496 156.97 60.3187 157.458 60.3261V61.0053C157.458 61.1565 157.518 61.3014 157.625 61.4083C157.732 61.5152 157.877 61.5753 158.028 61.5753C158.179 61.5753 158.324 61.5152 158.431 61.4083C158.538 61.3014 158.598 61.1565 158.598 61.0053V60.3181C159.15 60.3118 159.678 60.0903 160.069 59.7007C160.46 59.311 160.684 58.7841 160.692 58.2321C160.692 57.2053 160.102 56.6151 158.703 56.3159L157.895 56.1381C157.086 55.9359 156.706 55.6691 156.706 55.2164C156.706 54.7636 157.191 54.2623 158 54.2623C158.255 54.2357 158.512 54.2834 158.74 54.3996C158.968 54.5158 159.157 54.6956 159.286 54.9172C159.337 55.0279 159.42 55.1216 159.523 55.1874C159.626 55.2532 159.745 55.2885 159.868 55.2891H160.248C160.334 55.268 160.409 55.2138 160.456 55.1382C160.502 55.0626 160.518 54.9716 160.498 54.8849C160.389 54.447 160.144 54.0549 159.798 53.7645C159.453 53.4742 159.024 53.3003 158.574 53.2678V52.71C158.574 52.5588 158.514 52.4138 158.407 52.3069C158.3 52.2 158.155 52.14 158.004 52.14C157.853 52.14 157.708 52.2 157.601 52.3069C157.494 52.4138 157.434 52.5588 157.434 52.71V53.3083ZM150.877 56.8334C150.878 58.3227 151.347 59.7741 152.217 60.9826C153.088 62.1911 154.316 63.0955 155.728 63.5683H155.841C155.938 63.5683 156.03 63.5299 156.099 63.4617C156.167 63.3935 156.205 63.3009 156.205 63.2044V63.0347C156.205 62.8841 156.161 62.737 156.077 62.6117C155.994 62.4865 155.875 62.3889 155.736 62.3312C154.636 61.8873 153.694 61.1248 153.031 60.1415C152.367 59.1583 152.013 57.9993 152.013 56.8132C152.013 55.627 152.367 54.468 153.031 53.4848C153.694 52.5016 154.636 51.739 155.736 51.2951C155.875 51.2389 155.993 51.1427 156.077 51.0189C156.16 50.895 156.205 50.7491 156.205 50.5998V50.4138C156.206 50.3592 156.193 50.3053 156.168 50.2566C156.143 50.2079 156.107 50.166 156.063 50.1342C156.018 50.1025 155.967 50.0819 155.913 50.0743C155.859 50.0667 155.804 50.0722 155.752 50.0904C154.334 50.5594 153.1 51.4633 152.225 52.6738C151.349 53.8842 150.878 55.3397 150.877 56.8334ZM165.123 56.8334C165.12 55.3454 164.651 53.8958 163.78 52.689C162.91 51.4821 161.683 50.5788 160.272 50.1066H160.151C160.05 50.1066 159.953 50.1466 159.882 50.2179C159.811 50.2891 159.771 50.3858 159.771 50.4866V50.6078C159.774 50.7638 159.822 50.9154 159.91 51.0446C159.997 51.1737 160.12 51.2747 160.264 51.3355C161.361 51.7808 162.301 52.5433 162.962 53.5256C163.624 54.5079 163.977 55.6653 163.977 56.8495C163.977 58.0338 163.624 59.1912 162.962 60.1735C162.301 61.1558 161.361 61.9183 160.264 62.3636C160.123 62.425 160.002 62.5253 159.917 62.6528C159.831 62.7802 159.783 62.9295 159.779 63.0832V63.2206C159.779 63.2805 159.794 63.3395 159.822 63.3926C159.85 63.4457 159.89 63.4914 159.939 63.5261C159.988 63.5608 160.044 63.5835 160.103 63.5922C160.163 63.6009 160.223 63.5955 160.28 63.5764C161.692 63.1018 162.919 62.1955 163.788 60.9855C164.657 59.7756 165.124 58.3231 165.123 56.8334Z" fill="white"/>
</svg>
